<svg id="Layer_1" data-name="Layer 1" xmlns="http://www.w3.org/2000/svg" viewBox="0 0 299.28 91.62"><defs><style>.cls-1{fill:#fff;}.cls-2{fill:#eeb500;}</style></defs><path class="cls-1" d="M109.05,27.93h29.58v4.8l-21,24.94h21.27v6h-30.5V58.79l21-24.89H109Z"/><path class="cls-1" d="M145.06,27.93h6.83V43.18h17.8V27.93h6.83v35.7h-6.83V49.15h-17.8V63.63h-6.83Z"/><path class="cls-1" d="M214.06,27.93l-13,24V63.63h-6.84V52.21L180.91,27.93h6.94l9.74,16.78,9.59-16.78Z"/><path class="cls-1" d="M214.47,27.93h29.12V34H232.47V63.63h-6.88V34H214.47Z"/><path class="cls-1" d="M248.43,27.93h6.84v35.7h-6.84Z"/><path class="cls-1" d="M289.92,29.87A18.26,18.26,0,0,1,296.78,55a18.14,18.14,0,0,1-6.86,6.66,20.36,20.36,0,0,1-19.33,0A18.28,18.28,0,0,1,263.73,55a18.07,18.07,0,0,1,6.86-25.17,20.66,20.66,0,0,1,19.33,0ZM274.29,35.2a12.21,12.21,0,0,0-4.41,16.7,12.27,12.27,0,0,0,4.44,4.44,11.67,11.67,0,0,0,6,1.63,11.5,11.5,0,0,0,6-1.63,12.06,12.06,0,0,0,4.36-4.44,12.18,12.18,0,0,0,1.6-6.17,12,12,0,0,0-1.6-6.14,11.85,11.85,0,0,0-4.36-4.39,11.67,11.67,0,0,0-6-1.6A12,12,0,0,0,274.29,35.2Z"/><path class="cls-2" d="M56,1.11v3a43,43,0,0,1,0,83.66v3A45.92,45.92,0,0,0,56,1.11Z"/><path class="cls-2" d="M2.89,45.91A43.1,43.1,0,0,1,35.82,4.08v-3a45.91,45.91,0,0,0,0,89.58v-3A43.11,43.11,0,0,1,2.89,45.91Z"/><path class="cls-2" d="M41.59,81.81,40.12,81,23.91,71.6a4.06,4.06,0,0,1-2-3.53V42H19V69.74a4.08,4.08,0,0,0,2,3.53L38.7,83.47V90.9h0v.35c.95.15,1.91.28,2.89.37v-2.9h0Z"/><path class="cls-2" d="M72.83,69.74V42H70v26a4.07,4.07,0,0,1-2,3.53L51.7,81l-1.46.85v9.45h0v.36h.08l.71-.07,1-.14c.35,0,.7-.09,1-.15V90.9h0V83.47L70.8,73.27A4.07,4.07,0,0,0,72.83,69.74Z"/><path class="cls-2" d="M63.91,70.32a5.17,5.17,0,0,0,2.59-4.49V27.46a1.24,1.24,0,0,0-1.88-1.07c-1.4.87-3.47,2.06-5.73,3.31V20.9H56V31.29l-2.89,1.56v-24c1,.2,1.94.42,2.89.69A37.23,37.23,0,0,1,79,62.5V54.58H76.12V67.19h0v4.63A40.1,40.1,0,0,0,56,6.6c-.95-.25-1.91-.46-2.89-.64s-1.91-.32-2.88-.42V34.4l-1.3.69a5.74,5.74,0,0,1-1.58.56V0h-.08L45.87,0l-1.4,0h0V35.65a5.8,5.8,0,0,1-1.59-.56l-1.29-.69V5.53c-1,.11-1.94.25-2.89.43s-1.94.39-2.88.64h0a40.1,40.1,0,0,0-23.33,61l.68,1c.7,1,1.44,1.93,2.21,2.85V66.74h0V54.61H12.48v7.24A37.25,37.25,0,0,1,35.81,9.59c.95-.27,1.92-.5,2.89-.69h0v24l-3.31-1.79V20.9H32.51v8.56c-2.09-1.16-4-2.25-5.3-3.07a1.24,1.24,0,0,0-1.89,1.07V65.83a5.19,5.19,0,0,0,2.59,4.49l16.41,8.93.15.08v5.88h2.89V79.33l.15-.08Zm-19.52,4a1.08,1.08,0,0,1-1.59.95L31.2,68.91a4.78,4.78,0,0,1-2.49-4.19V52.86a1.08,1.08,0,0,1,1.6-1l11,6a6.79,6.79,0,0,1,3.12,5.74Zm0-19.71a1.08,1.08,0,0,1-1.59,1L31,49.08a4.34,4.34,0,0,1-2.26-3.81V32.66a1.08,1.08,0,0,1,1.6-.94l11,6c1.92,1,3.12,4,3.12,6.22Zm3-10.66c0-2.2,1.2-5.17,3.12-6.22l11-6a1.08,1.08,0,0,1,1.59.94V45.27a4.32,4.32,0,0,1-2.26,3.81L49,55.53a1.08,1.08,0,0,1-1.6-1Zm0,19.71a6.79,6.79,0,0,1,3.12-5.74l11-6a1.08,1.08,0,0,1,1.59,1V64.72a4.76,4.76,0,0,1-2.49,4.19L49,75.24a1.08,1.08,0,0,1-1.6-.95Z"/></svg>